<?xml version="1.0" encoding="UTF-8" standalone="no"?>
<svg
  width="465"
  height="166"
  viewBox="40 20 465 166"
  version="1.1"
  xmlns="http://www.w3.org/2000/svg">
  <defs>
    <clipPath id="disc">
      <circle cx="135" cy="112" r="88" />
    </clipPath>
  </defs>
  <!-- Circle logo mark -->
  <circle cx="135" cy="112" r="88" fill="#224B9B" />
  <!-- Horizontal line pattern inside circle -->
  <g clip-path="url(#disc)" fill="none" stroke="#ffffff" stroke-width="2.6">
    <path d="m 123,45 h 99" />
    <path d="m 123,53 h 99" />
    <path d="m 123,61 h 99" />
    <path d="m 123,69 h 99" />
    <path d="m 123,77 h 99" />
    <path d="m 123,85 h 99" />
    <path d="m 123,93 h 99" />
    <path d="m 123,101 h 99" />
    <path d="m 47,136 h 89" />
    <path d="m 47,144 h 89" />
    <path d="m 47,152 h 89" />
    <path d="m 47,160 h 89" />
    <path d="m 47,168 h 89" />
    <path d="m 47,176 h 89" />
    <path d="m 47,184 h 89" />
  </g>
  <!-- FAVE geometric wordmark -->
  <path fill="#224B9B" d="M240 74 H298 V104 H270 V130 H289 V141 H270 V177 H240 Z" />
  <path fill="#224B9B" d="M307 177 334 67 362 177 H337 L334 156 330 156 327 177 Z" />
  <path fill="#224B9B" d="M369 74 H432 L400 185 Z" />
  <path fill="#224B9B" d="M440 74 H498 V104 H470 V130 H490 V141 H470 V177 H440 Z" />
  <path fill="#224B9B" d="M440 141 H498 V177 H440 Z" />
  <!-- White line details on FAVE letters -->
  <g fill="none" stroke="#ffffff" stroke-width="2.7">
    <path d="m 240,144 h 33" />
    <path d="m 240,152 h 33" />
    <path d="m 240,160 h 33" />
    <path d="m 240,168 h 33" />
    <path d="m 240,176 h 33" />
    <path d="m 309,145 h 29" />
    <path d="m 309,153 h 29" />
    <path d="m 309,161 h 29" />
    <path d="m 309,169 h 29" />
    <path d="m 309,177 h 29" />
    <path d="m 371,77 h 33" />
    <path d="m 371,85 h 33" />
    <path d="m 371,93 h 33" />
    <path d="m 371,101 h 33" />
    <path d="m 371,109 h 33" />
    <path d="m 439,144 h 60" />
    <path d="m 439,152 h 60" />
    <path d="m 439,160 h 60" />
    <path d="m 439,168 h 60" />
    <path d="m 439,176 h 60" />
  </g>
</svg>
